<mxfile host="app.diagrams.net" modified="2023-11-08T21:14:09.651Z" agent="Mozilla/5.0 (Windows NT 10.0; Win64; x64) AppleWebKit/537.36 (KHTML, like Gecko) Chrome/119.0.0.0 Safari/537.36" etag="fYgcp9QWCUQzq-GFbqkS" version="22.0.8" type="google">
  <diagram id="C5RBs43oDa-KdzZeNtuy" name="Page-1">
    <mxGraphModel grid="1" page="1" gridSize="10" guides="1" tooltips="1" connect="1" arrows="1" fold="1" pageScale="1" pageWidth="827" pageHeight="1169" math="0" shadow="0">
      <root>
        <mxCell id="WIyWlLk6GJQsqaUBKTNV-0" />
        <mxCell id="WIyWlLk6GJQsqaUBKTNV-1" parent="WIyWlLk6GJQsqaUBKTNV-0" />
        <mxCell id="GwoxUb9CsmvEU_U9k0Qm-21" value="" style="edgeStyle=orthogonalEdgeStyle;rounded=0;orthogonalLoop=1;jettySize=auto;html=1;" edge="1" parent="WIyWlLk6GJQsqaUBKTNV-1" source="GwoxUb9CsmvEU_U9k0Qm-0" target="GwoxUb9CsmvEU_U9k0Qm-20">
          <mxGeometry relative="1" as="geometry" />
        </mxCell>
        <mxCell id="4sO87iPZChUCrsNq3L5g-2" style="edgeStyle=orthogonalEdgeStyle;rounded=0;orthogonalLoop=1;jettySize=auto;html=1;exitX=1;exitY=0.5;exitDx=0;exitDy=0;entryX=0.5;entryY=0;entryDx=0;entryDy=0;" edge="1" parent="WIyWlLk6GJQsqaUBKTNV-1" source="GwoxUb9CsmvEU_U9k0Qm-0" target="4sO87iPZChUCrsNq3L5g-0">
          <mxGeometry relative="1" as="geometry" />
        </mxCell>
        <mxCell id="4sO87iPZChUCrsNq3L5g-20" style="edgeStyle=orthogonalEdgeStyle;rounded=0;orthogonalLoop=1;jettySize=auto;html=1;exitX=1;exitY=0.25;exitDx=0;exitDy=0;entryX=0.75;entryY=0;entryDx=0;entryDy=0;" edge="1" parent="WIyWlLk6GJQsqaUBKTNV-1" source="GwoxUb9CsmvEU_U9k0Qm-0" target="4sO87iPZChUCrsNq3L5g-17">
          <mxGeometry relative="1" as="geometry" />
        </mxCell>
        <mxCell id="GwoxUb9CsmvEU_U9k0Qm-0" value="Chespeak Community Connection website&lt;br style=&quot;border-color: var(--border-color);&quot;&gt;main page" style="rounded=0;whiteSpace=wrap;html=1;" vertex="1" parent="WIyWlLk6GJQsqaUBKTNV-1">
          <mxGeometry x="147.5" y="30" width="120" height="60" as="geometry" />
        </mxCell>
        <mxCell id="GwoxUb9CsmvEU_U9k0Qm-4" value="" style="edgeStyle=orthogonalEdgeStyle;rounded=0;orthogonalLoop=1;jettySize=auto;html=1;" edge="1" parent="WIyWlLk6GJQsqaUBKTNV-1" source="GwoxUb9CsmvEU_U9k0Qm-1" target="GwoxUb9CsmvEU_U9k0Qm-3">
          <mxGeometry relative="1" as="geometry" />
        </mxCell>
        <mxCell id="GwoxUb9CsmvEU_U9k0Qm-1" value="Click on login button" style="rounded=0;whiteSpace=wrap;html=1;" vertex="1" parent="WIyWlLk6GJQsqaUBKTNV-1">
          <mxGeometry x="147.5" y="270" width="120" height="20" as="geometry" />
        </mxCell>
        <mxCell id="GwoxUb9CsmvEU_U9k0Qm-6" value="" style="edgeStyle=orthogonalEdgeStyle;rounded=0;orthogonalLoop=1;jettySize=auto;html=1;" edge="1" parent="WIyWlLk6GJQsqaUBKTNV-1" source="GwoxUb9CsmvEU_U9k0Qm-3" target="GwoxUb9CsmvEU_U9k0Qm-5">
          <mxGeometry relative="1" as="geometry" />
        </mxCell>
        <mxCell id="GwoxUb9CsmvEU_U9k0Qm-10" value="yes&lt;br&gt;" style="edgeLabel;html=1;align=center;verticalAlign=middle;resizable=0;points=[];" connectable="0" vertex="1" parent="GwoxUb9CsmvEU_U9k0Qm-6">
          <mxGeometry x="0.1111" y="-1" relative="1" as="geometry">
            <mxPoint x="-12" y="-13" as="offset" />
          </mxGeometry>
        </mxCell>
        <mxCell id="GwoxUb9CsmvEU_U9k0Qm-13" value="" style="edgeStyle=orthogonalEdgeStyle;rounded=0;orthogonalLoop=1;jettySize=auto;html=1;" edge="1" parent="WIyWlLk6GJQsqaUBKTNV-1" source="GwoxUb9CsmvEU_U9k0Qm-3" target="GwoxUb9CsmvEU_U9k0Qm-7">
          <mxGeometry relative="1" as="geometry" />
        </mxCell>
        <mxCell id="GwoxUb9CsmvEU_U9k0Qm-14" value="no&lt;br&gt;" style="edgeLabel;html=1;align=center;verticalAlign=middle;resizable=0;points=[];" connectable="0" vertex="1" parent="GwoxUb9CsmvEU_U9k0Qm-13">
          <mxGeometry x="-0.1683" y="1" relative="1" as="geometry">
            <mxPoint y="-13" as="offset" />
          </mxGeometry>
        </mxCell>
        <mxCell id="WxvK89cvLUkbxZFZCYXe-0" value="" style="edgeStyle=orthogonalEdgeStyle;rounded=0;orthogonalLoop=1;jettySize=auto;html=1;" edge="1" parent="WIyWlLk6GJQsqaUBKTNV-1" source="GwoxUb9CsmvEU_U9k0Qm-3" target="GwoxUb9CsmvEU_U9k0Qm-7">
          <mxGeometry relative="1" as="geometry" />
        </mxCell>
        <mxCell id="GwoxUb9CsmvEU_U9k0Qm-3" value="Are You a current User?" style="rhombus;whiteSpace=wrap;html=1;" vertex="1" parent="WIyWlLk6GJQsqaUBKTNV-1">
          <mxGeometry x="150" y="352.5" width="115" height="100" as="geometry" />
        </mxCell>
        <mxCell id="GwoxUb9CsmvEU_U9k0Qm-5" value="Add login information" style="rounded=0;whiteSpace=wrap;html=1;" vertex="1" parent="WIyWlLk6GJQsqaUBKTNV-1">
          <mxGeometry x="330" y="390" width="120" height="25" as="geometry" />
        </mxCell>
        <mxCell id="GwoxUb9CsmvEU_U9k0Qm-16" value="" style="edgeStyle=orthogonalEdgeStyle;rounded=0;orthogonalLoop=1;jettySize=auto;html=1;" edge="1" parent="WIyWlLk6GJQsqaUBKTNV-1" source="GwoxUb9CsmvEU_U9k0Qm-7" target="GwoxUb9CsmvEU_U9k0Qm-15">
          <mxGeometry relative="1" as="geometry" />
        </mxCell>
        <mxCell id="GwoxUb9CsmvEU_U9k0Qm-7" value="Create account button&amp;nbsp;" style="rounded=0;whiteSpace=wrap;html=1;" vertex="1" parent="WIyWlLk6GJQsqaUBKTNV-1">
          <mxGeometry x="10" y="390" width="100" height="25" as="geometry" />
        </mxCell>
        <mxCell id="WxvK89cvLUkbxZFZCYXe-2" value="" style="edgeStyle=orthogonalEdgeStyle;rounded=0;orthogonalLoop=1;jettySize=auto;html=1;" edge="1" parent="WIyWlLk6GJQsqaUBKTNV-1" source="GwoxUb9CsmvEU_U9k0Qm-15" target="WxvK89cvLUkbxZFZCYXe-1">
          <mxGeometry relative="1" as="geometry" />
        </mxCell>
        <mxCell id="GwoxUb9CsmvEU_U9k0Qm-15" value="user creates new account" style="rounded=0;whiteSpace=wrap;html=1;" vertex="1" parent="WIyWlLk6GJQsqaUBKTNV-1">
          <mxGeometry x="20" y="530" width="80" height="40" as="geometry" />
        </mxCell>
        <mxCell id="GwoxUb9CsmvEU_U9k0Qm-23" value="" style="edgeStyle=orthogonalEdgeStyle;rounded=0;orthogonalLoop=1;jettySize=auto;html=1;" edge="1" parent="WIyWlLk6GJQsqaUBKTNV-1" source="GwoxUb9CsmvEU_U9k0Qm-20" target="GwoxUb9CsmvEU_U9k0Qm-22">
          <mxGeometry relative="1" as="geometry" />
        </mxCell>
        <mxCell id="GwoxUb9CsmvEU_U9k0Qm-27" value="" style="edgeStyle=orthogonalEdgeStyle;rounded=0;orthogonalLoop=1;jettySize=auto;html=1;" edge="1" parent="WIyWlLk6GJQsqaUBKTNV-1" source="GwoxUb9CsmvEU_U9k0Qm-20" target="GwoxUb9CsmvEU_U9k0Qm-1">
          <mxGeometry relative="1" as="geometry" />
        </mxCell>
        <mxCell id="GwoxUb9CsmvEU_U9k0Qm-20" value="Click on contributor page" style="rounded=0;whiteSpace=wrap;html=1;" vertex="1" parent="WIyWlLk6GJQsqaUBKTNV-1">
          <mxGeometry x="152.5" y="180" width="110" height="30" as="geometry" />
        </mxCell>
        <mxCell id="GwoxUb9CsmvEU_U9k0Qm-28" style="edgeStyle=orthogonalEdgeStyle;rounded=0;orthogonalLoop=1;jettySize=auto;html=1;exitX=0.5;exitY=1;exitDx=0;exitDy=0;entryX=1;entryY=0.25;entryDx=0;entryDy=0;" edge="1" parent="WIyWlLk6GJQsqaUBKTNV-1" source="GwoxUb9CsmvEU_U9k0Qm-22" target="GwoxUb9CsmvEU_U9k0Qm-1">
          <mxGeometry relative="1" as="geometry" />
        </mxCell>
        <mxCell id="GwoxUb9CsmvEU_U9k0Qm-22" value="Click upload" style="whiteSpace=wrap;html=1;rounded=0;" vertex="1" parent="WIyWlLk6GJQsqaUBKTNV-1">
          <mxGeometry x="310" y="160" width="80" height="15" as="geometry" />
        </mxCell>
        <mxCell id="WxvK89cvLUkbxZFZCYXe-3" style="edgeStyle=orthogonalEdgeStyle;rounded=0;orthogonalLoop=1;jettySize=auto;html=1;exitX=1;exitY=0.25;exitDx=0;exitDy=0;entryX=0.25;entryY=1;entryDx=0;entryDy=0;" edge="1" parent="WIyWlLk6GJQsqaUBKTNV-1" source="WxvK89cvLUkbxZFZCYXe-1" target="GwoxUb9CsmvEU_U9k0Qm-5">
          <mxGeometry relative="1" as="geometry" />
        </mxCell>
        <mxCell id="WxvK89cvLUkbxZFZCYXe-1" value="Send request to Admin to allow for New User Account" style="rounded=0;whiteSpace=wrap;html=1;" vertex="1" parent="WIyWlLk6GJQsqaUBKTNV-1">
          <mxGeometry x="140" y="580" width="120" height="60" as="geometry" />
        </mxCell>
        <mxCell id="WxvK89cvLUkbxZFZCYXe-4" value="Takes user to Document database" style="rounded=0;whiteSpace=wrap;html=1;" vertex="1" parent="WIyWlLk6GJQsqaUBKTNV-1">
          <mxGeometry x="340" y="600" width="120" height="60" as="geometry" />
        </mxCell>
        <mxCell id="WxvK89cvLUkbxZFZCYXe-5" style="edgeStyle=orthogonalEdgeStyle;rounded=0;orthogonalLoop=1;jettySize=auto;html=1;exitX=0.5;exitY=1;exitDx=0;exitDy=0;entryX=0.417;entryY=0;entryDx=0;entryDy=0;entryPerimeter=0;" edge="1" parent="WIyWlLk6GJQsqaUBKTNV-1" source="GwoxUb9CsmvEU_U9k0Qm-5" target="WxvK89cvLUkbxZFZCYXe-4">
          <mxGeometry relative="1" as="geometry" />
        </mxCell>
        <mxCell id="WxvK89cvLUkbxZFZCYXe-6" value="If login is successfull" style="edgeLabel;html=1;align=center;verticalAlign=middle;resizable=0;points=[];" connectable="0" vertex="1" parent="WxvK89cvLUkbxZFZCYXe-5">
          <mxGeometry x="-0.0124" relative="1" as="geometry">
            <mxPoint x="30" y="25" as="offset" />
          </mxGeometry>
        </mxCell>
        <mxCell id="4sO87iPZChUCrsNq3L5g-7" style="edgeStyle=orthogonalEdgeStyle;rounded=0;orthogonalLoop=1;jettySize=auto;html=1;exitX=0.25;exitY=1;exitDx=0;exitDy=0;entryX=0.5;entryY=0;entryDx=0;entryDy=0;" edge="1" parent="WIyWlLk6GJQsqaUBKTNV-1" source="4sO87iPZChUCrsNq3L5g-0" target="4sO87iPZChUCrsNq3L5g-6">
          <mxGeometry relative="1" as="geometry" />
        </mxCell>
        <mxCell id="4sO87iPZChUCrsNq3L5g-10" value="" style="edgeStyle=orthogonalEdgeStyle;rounded=0;orthogonalLoop=1;jettySize=auto;html=1;" edge="1" parent="WIyWlLk6GJQsqaUBKTNV-1" source="4sO87iPZChUCrsNq3L5g-0" target="4sO87iPZChUCrsNq3L5g-8">
          <mxGeometry relative="1" as="geometry" />
        </mxCell>
        <mxCell id="4sO87iPZChUCrsNq3L5g-12" style="edgeStyle=orthogonalEdgeStyle;rounded=0;orthogonalLoop=1;jettySize=auto;html=1;exitX=0.75;exitY=1;exitDx=0;exitDy=0;entryX=0.5;entryY=0;entryDx=0;entryDy=0;" edge="1" parent="WIyWlLk6GJQsqaUBKTNV-1" source="4sO87iPZChUCrsNq3L5g-0" target="4sO87iPZChUCrsNq3L5g-11">
          <mxGeometry relative="1" as="geometry" />
        </mxCell>
        <mxCell id="4sO87iPZChUCrsNq3L5g-0" value="Click on Home Page" style="rounded=0;whiteSpace=wrap;html=1;" vertex="1" parent="WIyWlLk6GJQsqaUBKTNV-1">
          <mxGeometry x="510" y="90" width="100" height="30" as="geometry" />
        </mxCell>
        <mxCell id="4sO87iPZChUCrsNq3L5g-3" value="Click on About Page" style="rounded=0;whiteSpace=wrap;html=1;" vertex="1" parent="WIyWlLk6GJQsqaUBKTNV-1">
          <mxGeometry x="20" y="80" width="70" height="30" as="geometry" />
        </mxCell>
        <mxCell id="4sO87iPZChUCrsNq3L5g-5" style="edgeStyle=orthogonalEdgeStyle;rounded=0;orthogonalLoop=1;jettySize=auto;html=1;exitX=0;exitY=0.5;exitDx=0;exitDy=0;entryX=0.414;entryY=0.033;entryDx=0;entryDy=0;entryPerimeter=0;" edge="1" parent="WIyWlLk6GJQsqaUBKTNV-1" source="GwoxUb9CsmvEU_U9k0Qm-0" target="4sO87iPZChUCrsNq3L5g-3">
          <mxGeometry relative="1" as="geometry" />
        </mxCell>
        <mxCell id="4sO87iPZChUCrsNq3L5g-6" value="Current News&amp;nbsp;" style="rounded=0;whiteSpace=wrap;html=1;" vertex="1" parent="WIyWlLk6GJQsqaUBKTNV-1">
          <mxGeometry x="450" y="160" width="70" height="22.5" as="geometry" />
        </mxCell>
        <mxCell id="4sO87iPZChUCrsNq3L5g-8" value="Recent uploads" style="rounded=0;whiteSpace=wrap;html=1;" vertex="1" parent="WIyWlLk6GJQsqaUBKTNV-1">
          <mxGeometry x="525" y="160" width="70" height="37.5" as="geometry" />
        </mxCell>
        <mxCell id="4sO87iPZChUCrsNq3L5g-14" value="" style="edgeStyle=orthogonalEdgeStyle;rounded=0;orthogonalLoop=1;jettySize=auto;html=1;" edge="1" parent="WIyWlLk6GJQsqaUBKTNV-1" source="4sO87iPZChUCrsNq3L5g-11" target="4sO87iPZChUCrsNq3L5g-13">
          <mxGeometry relative="1" as="geometry" />
        </mxCell>
        <mxCell id="4sO87iPZChUCrsNq3L5g-11" value="Click on map" style="rounded=0;whiteSpace=wrap;html=1;" vertex="1" parent="WIyWlLk6GJQsqaUBKTNV-1">
          <mxGeometry x="610" y="166.5" width="80" height="31" as="geometry" />
        </mxCell>
        <mxCell id="4sO87iPZChUCrsNq3L5g-16" value="" style="edgeStyle=orthogonalEdgeStyle;rounded=0;orthogonalLoop=1;jettySize=auto;html=1;" edge="1" parent="WIyWlLk6GJQsqaUBKTNV-1" source="4sO87iPZChUCrsNq3L5g-13" target="4sO87iPZChUCrsNq3L5g-15">
          <mxGeometry relative="1" as="geometry" />
        </mxCell>
        <mxCell id="4sO87iPZChUCrsNq3L5g-13" value="Click filter" style="rounded=0;whiteSpace=wrap;html=1;" vertex="1" parent="WIyWlLk6GJQsqaUBKTNV-1">
          <mxGeometry x="610" y="230" width="80" height="30" as="geometry" />
        </mxCell>
        <mxCell id="4sO87iPZChUCrsNq3L5g-15" value="Filtered Uploaded Entries" style="rounded=0;whiteSpace=wrap;html=1;" vertex="1" parent="WIyWlLk6GJQsqaUBKTNV-1">
          <mxGeometry x="610" y="280" width="80" height="50" as="geometry" />
        </mxCell>
        <mxCell id="4sO87iPZChUCrsNq3L5g-17" value="Help &amp;amp; Tutorial page" style="rounded=0;whiteSpace=wrap;html=1;" vertex="1" parent="WIyWlLk6GJQsqaUBKTNV-1">
          <mxGeometry x="660" y="72.5" width="100" height="45" as="geometry" />
        </mxCell>
        <mxCell id="4sO87iPZChUCrsNq3L5g-22" value="" style="edgeStyle=orthogonalEdgeStyle;rounded=0;orthogonalLoop=1;jettySize=auto;html=1;" edge="1" parent="WIyWlLk6GJQsqaUBKTNV-1" source="4sO87iPZChUCrsNq3L5g-21" target="WxvK89cvLUkbxZFZCYXe-4">
          <mxGeometry relative="1" as="geometry" />
        </mxCell>
        <mxCell id="4sO87iPZChUCrsNq3L5g-23" value="If currently &lt;br&gt;logged in" style="edgeLabel;html=1;align=center;verticalAlign=middle;resizable=0;points=[];" connectable="0" vertex="1" parent="4sO87iPZChUCrsNq3L5g-22">
          <mxGeometry x="0.05" y="1" relative="1" as="geometry">
            <mxPoint x="2" y="14" as="offset" />
          </mxGeometry>
        </mxCell>
        <mxCell id="4sO87iPZChUCrsNq3L5g-21" value="Refresh Page" style="rounded=0;whiteSpace=wrap;html=1;" vertex="1" parent="WIyWlLk6GJQsqaUBKTNV-1">
          <mxGeometry x="540" y="615" width="120" height="30" as="geometry" />
        </mxCell>
        <mxCell id="4sO87iPZChUCrsNq3L5g-24" value="Send message to Admin to Reset Login Username/Password" style="rounded=0;whiteSpace=wrap;html=1;" vertex="1" parent="WIyWlLk6GJQsqaUBKTNV-1">
          <mxGeometry x="310" y="310" width="120" height="60" as="geometry" />
        </mxCell>
        <mxCell id="4sO87iPZChUCrsNq3L5g-26" value="" style="edgeStyle=orthogonalEdgeStyle;rounded=0;orthogonalLoop=1;jettySize=auto;html=1;" edge="1" parent="WIyWlLk6GJQsqaUBKTNV-1" source="4sO87iPZChUCrsNq3L5g-25" target="4sO87iPZChUCrsNq3L5g-24">
          <mxGeometry relative="1" as="geometry" />
        </mxCell>
        <mxCell id="4sO87iPZChUCrsNq3L5g-25" value="Forgot Username/ Password" style="rounded=0;whiteSpace=wrap;html=1;" vertex="1" parent="WIyWlLk6GJQsqaUBKTNV-1">
          <mxGeometry x="490" y="315" width="90" height="50" as="geometry" />
        </mxCell>
        <mxCell id="4sO87iPZChUCrsNq3L5g-27" style="edgeStyle=orthogonalEdgeStyle;rounded=0;orthogonalLoop=1;jettySize=auto;html=1;exitX=0;exitY=0.25;exitDx=0;exitDy=0;entryX=1;entryY=0.25;entryDx=0;entryDy=0;" edge="1" parent="WIyWlLk6GJQsqaUBKTNV-1" target="GwoxUb9CsmvEU_U9k0Qm-5">
          <mxGeometry relative="1" as="geometry">
            <mxPoint x="595" y="615" as="sourcePoint" />
            <mxPoint x="490.96000000000004" y="406.5" as="targetPoint" />
          </mxGeometry>
        </mxCell>
        <mxCell id="4sO87iPZChUCrsNq3L5g-28" value="If not logged in" style="edgeLabel;html=1;align=center;verticalAlign=middle;resizable=0;points=[];" connectable="0" vertex="1" parent="4sO87iPZChUCrsNq3L5g-27">
          <mxGeometry x="0.3125" relative="1" as="geometry">
            <mxPoint x="1" as="offset" />
          </mxGeometry>
        </mxCell>
        <mxCell id="4sO87iPZChUCrsNq3L5g-32" style="edgeStyle=orthogonalEdgeStyle;rounded=0;orthogonalLoop=1;jettySize=auto;html=1;exitX=0.5;exitY=0;exitDx=0;exitDy=0;entryX=1;entryY=0.5;entryDx=0;entryDy=0;" edge="1" parent="WIyWlLk6GJQsqaUBKTNV-1" source="4sO87iPZChUCrsNq3L5g-29" target="4sO87iPZChUCrsNq3L5g-25">
          <mxGeometry relative="1" as="geometry" />
        </mxCell>
        <mxCell id="4sO87iPZChUCrsNq3L5g-33" value="no" style="edgeLabel;html=1;align=center;verticalAlign=middle;resizable=0;points=[];" connectable="0" vertex="1" parent="4sO87iPZChUCrsNq3L5g-32">
          <mxGeometry x="-0.34" y="-2" relative="1" as="geometry">
            <mxPoint x="8" y="3" as="offset" />
          </mxGeometry>
        </mxCell>
        <mxCell id="4sO87iPZChUCrsNq3L5g-37" style="edgeStyle=orthogonalEdgeStyle;rounded=0;orthogonalLoop=1;jettySize=auto;html=1;exitX=1;exitY=1;exitDx=0;exitDy=0;entryX=1;entryY=0;entryDx=0;entryDy=0;" edge="1" parent="WIyWlLk6GJQsqaUBKTNV-1" source="4sO87iPZChUCrsNq3L5g-29" target="4sO87iPZChUCrsNq3L5g-34">
          <mxGeometry relative="1" as="geometry" />
        </mxCell>
        <mxCell id="4sO87iPZChUCrsNq3L5g-38" value="&amp;nbsp;After 5 attempts" style="edgeLabel;html=1;align=center;verticalAlign=middle;resizable=0;points=[];" connectable="0" vertex="1" parent="4sO87iPZChUCrsNq3L5g-37">
          <mxGeometry x="-0.425" relative="1" as="geometry">
            <mxPoint x="50" as="offset" />
          </mxGeometry>
        </mxCell>
        <mxCell id="4sO87iPZChUCrsNq3L5g-29" value="Continue Attempting login?" style="rhombus;whiteSpace=wrap;html=1;" vertex="1" parent="WIyWlLk6GJQsqaUBKTNV-1">
          <mxGeometry x="580" y="400" width="80" height="80" as="geometry" />
        </mxCell>
        <mxCell id="4sO87iPZChUCrsNq3L5g-40" value="" style="edgeStyle=orthogonalEdgeStyle;rounded=0;orthogonalLoop=1;jettySize=auto;html=1;" edge="1" parent="WIyWlLk6GJQsqaUBKTNV-1" source="4sO87iPZChUCrsNq3L5g-34" target="4sO87iPZChUCrsNq3L5g-29">
          <mxGeometry relative="1" as="geometry" />
        </mxCell>
        <mxCell id="4sO87iPZChUCrsNq3L5g-34" value="Account locked&amp;nbsp;&lt;br&gt;Admin Required to Change" style="rounded=0;whiteSpace=wrap;html=1;" vertex="1" parent="WIyWlLk6GJQsqaUBKTNV-1">
          <mxGeometry x="570" y="510" width="100" height="60" as="geometry" />
        </mxCell>
      </root>
    </mxGraphModel>
  </diagram>
</mxfile>
